<?xml version="1.0" standalone="no"?><!DOCTYPE svg PUBLIC "-//W3C//DTD SVG 1.1//EN" "http://www.w3.org/Graphics/SVG/1.1/DTD/svg11.dtd"><svg t="1686630897488" class="icon" viewBox="0 0 1024 1024" version="1.1" xmlns="http://www.w3.org/2000/svg" p-id="7833" xmlns:xlink="http://www.w3.org/1999/xlink" width="16" height="16"><path d="M682.666667 128H341.333333a213.333333 213.333333 0 0 0-213.333333 213.333333v341.333334a213.333333 213.333333 0 0 0 213.333333 213.333333h341.333334a213.333333 213.333333 0 0 0 213.333333-213.333333V341.333333a213.333333 213.333333 0 0 0-213.333333-213.333333z m138.666666 554.666667A139.093333 139.093333 0 0 1 682.666667 821.333333H341.333333A139.093333 139.093333 0 0 1 202.666667 682.666667V341.333333A139.093333 139.093333 0 0 1 341.333333 202.666667h341.333334A139.093333 139.093333 0 0 1 821.333333 341.333333z m-64-373.333334a42.666667 42.666667 0 1 1-42.666666-42.666666 42.666667 42.666667 0 0 1 42.666666 42.666666zM512 320a192 192 0 1 0 192 192A191.573333 191.573333 0 0 0 512 320z m0 309.333333A117.333333 117.333333 0 1 1 629.333333 512 117.333333 117.333333 0 0 1 512 629.333333z" p-id="7834"></path></svg>