<?xml version="1.0" standalone="no"?><!DOCTYPE svg PUBLIC "-//W3C//DTD SVG 1.1//EN" "http://www.w3.org/Graphics/SVG/1.1/DTD/svg11.dtd"><svg t="1686734818370" class="icon" viewBox="0 0 1024 1024" version="1.1" xmlns="http://www.w3.org/2000/svg" p-id="10435" xmlns:xlink="http://www.w3.org/1999/xlink" width="16" height="16"><path d="M811.99 242c0 16.582-13.428 30-30 30H242.01c-16.572 0-30-13.418-30-30 0-16.563 13.428-30 30-30h539.98c16.573 0 30 13.438 30 30zM811.99 512c0 16.582-13.428 30-30 30H242.01c-16.572 0-30-13.418-30-30 0-16.563 13.428-30 30-30h539.98c16.573 0 30 13.438 30 30zM811.99 782c0 16.582-13.428 30-30 30H442.107c-16.572 0-30-13.418-30-30 0-16.563 13.428-30 30-30H781.99c16.573 0 30 13.438 30 30z" fill="#333333" p-id="10436"></path><path d="M371.756 782c0 16.582-13.428 30-30 30H242.01c-16.572 0-30-13.418-30-30 0-16.563 13.428-30 30-30h99.746c16.572 0 30 13.438 30 30z" fill="#37ABE7" p-id="10437"></path></svg>