<?xml version="1.0" standalone="no"?><!DOCTYPE svg PUBLIC "-//W3C//DTD SVG 1.1//EN" "http://www.w3.org/Graphics/SVG/1.1/DTD/svg11.dtd"><svg t="1686639545043" class="icon" viewBox="0 0 1024 1024" version="1.1" xmlns="http://www.w3.org/2000/svg" p-id="865" xmlns:xlink="http://www.w3.org/1999/xlink" width="16" height="16"><path d="M765.631 537.775c13.448 10.459 22.909 23.034 28.387 37.726 5.479 14.694 7.72 30.009 6.727 45.946-0.998 15.938-4.485 31.876-10.459 47.81-5.978 15.938-13.698 30.384-23.159 43.332-16.935 23.408-36.111 43.329-57.528 59.765-21.413 16.436-43.578 30.134-66.487 41.092-22.909 10.953-45.947 19.546-69.105 25.773-23.159 6.223-44.949 10.833-65.369 13.819-20.42 2.988-38.723 4.859-54.91 5.603-16.187 0.748-28.762 1.123-37.728 1.123-8.963 0-20.918-0.624-35.858-1.867-14.941-1.247-31.502-3.737-49.681-7.474-18.179-3.733-37.23-8.963-57.15-15.688-19.924-6.722-39.345-15.563-58.272-26.518-18.927-10.957-36.981-24.406-54.162-40.343-17.185-15.938-31.751-35.114-43.706-57.524-7.969-14.445-13.323-29.885-16.062-46.321C98.368 647.594 97 626.676 97 601.273c0-10.953 1.867-23.408 5.604-37.351 3.733-13.947 10.334-29.385 19.796-46.321 9.464-16.931 22.414-35.359 38.85-55.284 16.433-19.921 37.351-41.836 62.754-65.743 24.9-23.408 50.674-44.201 77.32-62.38 26.646-18.179 55.159-32.246 85.539-42.21 13.947-4.98 29.385-7.72 46.321-8.219 16.931-0.495 30.878 2.244 41.836 8.219a297.798 297.798 0 0 1 14.192 16.81c4.485 5.729 7.473 12.825 8.966 21.292 1.493 6.972 1.618 13.698 0.374 20.17a539.08 539.08 0 0 1-4.111 19.426 311.284 311.284 0 0 0-3.733 18.678c-0.998 5.973-0.499 11.452 1.492 16.433 8.468 0.998 16.686 0.624 24.656-1.118a177.585 177.585 0 0 0 23.158-6.726c7.471-2.74 15.066-5.604 22.785-8.589 7.719-2.989 15.812-5.23 24.281-6.726 13.448-2.49 26.77-3.612 39.969-3.363 13.198 0.249 25.15 2.119 35.858 5.604 10.708 3.487 19.549 8.841 26.521 16.062 6.972 7.221 11.207 16.561 12.7 28.014 0.998 6.975 0.499 13.448-1.493 19.425-1.992 5.978-4.111 11.582-6.352 16.811a93.202 93.202 0 0 0-5.229 16.062c-1.243 5.475-0.869 11.203 1.122 17.181 1.493 3.487 5.105 6.722 10.833 9.711 5.728 2.988 12.326 5.977 19.796 8.966a1227.076 1227.076 0 0 1 23.533 9.711c8.219 3.489 15.315 7.472 21.293 11.957zM577.368 770.113c12.949-7.969 26.023-18.927 39.221-32.87 13.199-13.947 23.907-29.51 32.124-46.695 8.219-17.181 12.825-35.609 13.819-55.284 0.998-19.672-3.982-39.471-14.941-59.391-9.461-16.437-21.042-30.38-34.74-41.836-13.693-11.457-29.011-20.544-45.943-27.27-16.935-6.722-34.989-11.577-54.161-14.566-19.177-2.989-38.726-4.481-58.647-4.481-38.352 0-72.344 3.983-101.975 11.951-29.635 7.969-55.284 18.428-76.95 31.377-21.666 12.95-39.221 27.644-52.669 44.077-13.448 16.437-22.909 33.123-28.388 50.054-5.479 16.437-7.096 32.748-4.855 48.935 2.241 16.184 7.346 31.502 15.314 45.943 7.969 14.445 18.303 27.394 31.003 38.847 12.7 11.456 26.77 20.669 42.21 27.643 28.388 12.451 57.4 20.295 87.035 23.533s57.898 3.363 84.794 0.374c26.892-2.988 51.422-8.219 73.587-15.688 22.162-7.472 40.216-15.686 54.162-24.653z m-97.867-236.075c9.96 3.986 19.425 8.468 28.388 13.448 8.966 4.98 16.935 11.702 23.906 20.17 4.98 5.978 9.341 13.448 13.074 22.414 3.737 8.963 6.352 18.553 7.845 28.762 1.496 10.21 1.87 20.544 1.122 31.003s-3.113 19.921-7.096 28.388c-3.986 8.966-8.841 18.054-14.569 27.27-5.729 9.212-12.7 17.804-20.918 25.773-8.219 7.97-18.054 15.065-29.51 21.292-11.453 6.223-25.4 10.833-41.836 13.818-29.881 5.479-58.518 2.74-85.913-8.215-27.394-10.957-48.808-29.136-64.247-54.539-5.977-19.422-9.215-36.607-9.714-51.547-0.499-14.94 3.487-31.127 11.955-48.558 6.473-13.448 16.309-26.026 29.507-37.729 13.199-11.706 28.392-21.167 45.573-28.388 17.18-7.225 35.488-11.456 54.91-12.7 19.423-1.246 38.596 1.868 57.523 9.338z m-118.786 183.78c18.428 1.493 32.498-2.988 42.21-13.448 9.714-10.459 14.944-22.161 15.688-35.114 0.748-12.949-2.985-24.526-11.203-34.736-8.219-10.209-21.042-14.32-38.476-12.329-13.449 1.496-23.907 7.224-31.378 17.185-7.47 9.959-11.702 20.544-12.7 31.751-0.993 11.203 1.372 21.541 7.097 31.003 5.728 9.461 15.318 14.69 28.762 15.688z m305.554-553.581c36.358 0 70.349 4.855 101.976 14.566 31.626 9.715 59.27 23.783 82.923 42.211 23.658 18.428 42.211 40.842 55.659 67.238C920.274 314.648 927 344.53 927 377.902c0 16.432-3.986 28.762-11.956 36.977-7.969 8.218-16.561 12.454-25.773 12.703-9.216 0.25-17.805-3.237-25.774-10.458-7.969-7.224-11.955-18.304-11.955-33.247 0-19.921-5.479-38.848-16.433-56.776-10.958-17.929-25.402-33.618-43.332-47.066-17.929-13.448-38.473-24.031-61.632-31.751-23.162-7.72-46.695-11.581-70.598-11.581-15.442 0-26.895-3.734-34.365-11.203-7.474-7.474-10.958-15.813-10.459-25.03 0.495-9.212 5.105-17.555 13.818-25.025 8.717-7.472 21.292-11.208 37.728-11.208z m0 119.53c46.318 0 81.431 11.831 105.338 35.488 23.907 23.658 35.859 59.391 35.859 107.205 0 14.941-2.491 25.524-7.471 31.751s-10.459 8.966-16.436 8.219c-5.974-0.748-11.453-4.36-16.433-10.833-4.984-6.476-7.473-15.19-7.473-26.148 0-29.385-8.464-52.793-25.4-70.224-16.931-17.434-39.595-26.148-67.984-26.148-9.461 0-16.436-2.615-20.917-7.844-4.481-5.229-6.722-10.833-6.722-16.811 0-5.977 2.366-11.581 7.096-16.81 4.731-5.23 11.577-7.845 20.543-7.845z m0 0" fill="current" p-id="866"></path></svg>